<?xml version="1.0" encoding="UTF-8"?>
<svg id="Layer_1" data-name="Layer 1" xmlns="http://www.w3.org/2000/svg" viewBox="0 0 852.33 1874.75">
  <defs>
    <style>
      .cls-1 {
        fill: #303045;
      }
    </style>
  </defs>
  <path class="cls-1" d="m548.5,118.55c15.08,2.39,22.62,5.34,22.62,8.86,0,2.89-3.83,6.1-11.5,9.61v201.1c0,8.04-4.78,12.06-14.32,12.06-4.4,0-7.35-.88-8.86-2.64-1.26-1.51-1.88-4.08-1.88-7.73,0-4.15.63-49.32,1.88-135.51l.75-68.04c-13.82,20.36-29.53,39.14-47.12,56.35-.25.25-.63.38-1.13.38-2.52,0-3.77-1-3.77-3.02,0-.38.12-.69.38-.94,15.96-20.36,30.72-45.11,44.29-74.26,11.43-24.38,20.48-48.5,27.14-72.38,5.02-17.84,7.85-31.98,8.48-42.41,26.51,6.41,39.77,11.81,39.77,16.21,0,4.02-5.4,6.72-16.21,8.1-10.93,35.43-24.44,66.85-40.52,94.24Zm98.38,73.32h130.8c10.93-12.82,17.46-19.22,19.6-19.22,1.63,0,8.48,4.9,20.54,14.7,5.91,4.9,8.86,8.48,8.86,10.74s-1.63,3.39-4.9,3.39h-93.11v120.06h62.57c11.69-13.69,18.47-20.54,20.36-20.54,2.13,0,9.36,5.15,21.67,15.46,6.41,5.53,9.61,9.3,9.61,11.31,0,2.26-1.76,3.39-5.28,3.39h-214.3c-9.93,0-19.22.75-27.89,2.26l-3.77-14.14c9.92,1.51,20.36,2.26,31.29,2.26h81.8v-120.06h-62.95c-17.22,33.8-38.83,62.89-64.84,87.26-.25.25-.57.38-.94.38-2.39,0-3.58-1.13-3.58-3.39,0-.25.12-.57.38-.94,37.57-47.87,64.58-108.31,81.04-181.31h-40.9c-9.3,0-17.97.63-26.01,1.88l-3.77-14.51c10.68,2.01,20.61,3.02,29.78,3.02h43.16c2.76-13.82,5.09-27.45,6.97-40.9,2.26-15.46,3.39-32.16,3.39-50.13,26.01,4.02,39.01,7.98,39.01,11.87,0,3.14-4.33,6.1-13,8.86-3.39,26.26-7.42,49.7-12.06,70.3h108.94c11.43-13.95,18.09-20.92,19.98-20.92s9.36,5.28,22.43,15.83c6.16,5.03,9.24,8.67,9.24,10.93,0,2.52-1.82,3.77-5.47,3.77h-157.38c-9.93,36.69-20.36,66.16-31.29,88.4Z"/>
  <path class="cls-1" d="m539.08,625.4c-.88,7.67-2.58,17.84-5.09,30.53-6.79,31.04-20.36,58.8-40.71,83.31-.38.5-.94.75-1.7.75-2.14,0-3.2-.75-3.2-2.26,0-.25.06-.5.19-.75,12.69-25.63,21.49-54.22,26.39-85.76,4.15-27.26,6.22-68.86,6.22-124.77,0-28.52-.75-50.26-2.26-65.21,9.92,4.4,18.78,9.17,26.58,14.32h35.62c7.41-8.29,11.75-12.44,13-12.44,2.26,0,7.16,3.33,14.7,9.99,4.15,3.9,6.22,6.91,6.22,9.05,0,2.26-3.2,5.34-9.61,9.24v69.55l1.13,147.95c0,10.05-3.9,17.59-11.69,22.62-4.78,3.14-10.18,4.71-16.21,4.71-3.02,0-4.65-1.7-4.9-5.09-.38-5.03-2.77-8.86-7.16-11.5-3.77-2.26-11.06-4.71-21.86-7.35-1.01-.25-1.51-1.07-1.51-2.45,0-1.76.63-2.64,1.88-2.64,15.71,1.38,26.51,2.07,32.42,2.07,4.15,0,6.22-2.26,6.22-6.79v-77.09h-44.67Zm186.97-202.24h68.61c10.93-12.56,17.4-18.85,19.41-18.85,1.63,0,8.73,4.9,21.3,14.7,6.15,4.9,9.24,8.36,9.24,10.37,0,2.26-1.7,3.39-5.09,3.39h-113.46c.12,1.51.31,4.15.57,7.92.25,2.01.38,3.39.38,4.15,0,6.91-4.65,10.37-13.95,10.37-7.16,0-10.74-2.83-10.74-8.48,0-.38.06-1.95.19-4.71.12-2.89.25-5.97.38-9.24h-76.14c.25,3.27.5,7.04.75,11.31.12,2.64.19,4.27.19,4.9,0,6.41-4.9,9.61-14.7,9.61-6.66,0-9.99-2.7-9.99-8.1,0-.5.06-2.51.19-6.03.12-3.77.25-7.66.38-11.69h-75.58c-6.66,0-15.39.75-26.2,2.26l-3.58-14.14c9.55,1.51,19.48,2.26,29.78,2.26h75.58v-3.77c0-13.95-.75-25.57-2.26-34.87,17.59,2.01,28.71,3.77,33.36,5.28,3.64,1.13,5.47,2.89,5.47,5.28,0,2.52-4.46,5.47-13.38,8.86v19.22h76.14v-3.39c0-11.43-.82-23.18-2.45-35.25,16.59,2.01,27.26,3.77,32.04,5.28,4.02,1.13,6.03,2.7,6.03,4.71,0,3.14-4.15,6.16-12.44,9.05v19.6Zm-183.58,131.93c-.5,27.14-1.26,47.37-2.26,60.69h43.54v-60.69h-41.28Zm41.28-9.61v-60.31h-40.9v60.31h40.9Zm87.83,18.47c5.91-10.05,11.43-21.74,16.59-35.06h-35.06c-5.28,0-12.75.75-22.43,2.26l-3.96-14.51c9.8,1.76,18.41,2.64,25.82,2.64h39.01l4.71-15.08c4.4-15.08,6.6-29.84,6.6-44.29,23.25,4.02,34.87,7.85,34.87,11.5,0,3.27-4.02,5.97-12.06,8.1-2.64,11.81-6.66,25.07-12.06,39.77h31.29c6.41-9.42,12.69-20.36,18.85-32.79,3.77-8.67,6.47-16.27,8.1-22.81,19.73,8.29,29.59,13.95,29.59,16.96,0,3.65-4.71,5.47-14.14,5.47-9.55,11.94-20.73,22.99-33.55,33.17h33.93c8.54-10.3,13.57-15.46,15.08-15.46,1.38,0,7.73,4.27,19.04,12.82,4.65,3.52,6.97,6.47,6.97,8.86,0,2.26-1.7,3.39-5.09,3.39h-82.74c5.91,12.94,13.5,24.63,22.81,35.06h37.13c8.79-10.81,14.07-16.21,15.83-16.21,2.01,0,8.48,4.4,19.41,13.19,4.9,3.9,7.35,6.97,7.35,9.24s-1.7,3.39-5.09,3.39h-65.78c6.41,5.91,11.31,10.18,14.7,12.82,19.22,14.07,39.96,23.69,62.2,28.84.88.13,1.32.69,1.32,1.7,0,1.51-.75,2.39-2.26,2.64-3.77.88-6.47,2.2-8.1,3.96-1.63,1.88-3.52,5.47-5.65,10.74-.75,2.26-2.33,3.39-4.71,3.39-2.26,0-6.1-1.57-11.5-4.71-15.96-9.55-30.91-21.49-44.86-35.81-7.67-8.67-13.82-16.52-18.47-23.56h-70.11c-18.47,26.39-41.65,47.94-69.55,64.65-.38.13-.69.19-.94.19-1.88,0-2.83-.94-2.83-2.83,0-.5.19-.94.57-1.32,20.86-17.21,38.64-37.44,53.34-60.69h-24.69c-5.65,0-13.38.88-23.18,2.64l-3.77-14.51c8.67,1.51,17.53,2.26,26.58,2.26h30.91Zm72.38,98.01c24.38,5.53,43.03,12.63,55.98,21.3,11.05,7.54,16.59,15.39,16.59,23.56,0,3.14-1.01,5.84-3.02,8.1-1.76,2.01-3.83,3.02-6.22,3.02-4.02,0-8.8-2.95-14.32-8.86-18.09-19.73-39.71-34.49-64.84-44.29.12,10.43.38,20.92.75,31.48.25,7.42.38,11.94.38,13.57,0,8.17-2.95,15.01-8.86,20.54-4.9,4.9-11.12,7.35-18.66,7.35-2.64,0-4.46-2.33-5.47-6.97-.88-4.4-3.77-7.85-8.67-10.37-5.28-2.64-13.82-4.97-25.63-6.97-1.01-.25-1.51-1.07-1.51-2.45,0-1.76.63-2.64,1.88-2.64,16.33,1.38,29.46,2.07,39.39,2.07,3.89,0,5.84-2.07,5.84-6.22v-38.64c-18.47,12.06-40.84,23.62-67.1,34.68-1.38,8.04-3.46,12.06-6.22,12.06-1.51,0-3.2-1.82-5.09-5.47-1.88-3.89-5.34-12.25-10.37-25.07,9.05-.88,16.27-2.07,21.67-3.58,25-6.03,47.37-12.82,67.1-20.36v-29.03c0-18.22-.63-31.48-1.88-39.77,15.08,1.63,24.81,3.14,29.21,4.52,3.39,1.13,5.09,2.7,5.09,4.71,0,2.64-3.96,5.65-11.87,9.05v51.27c.75.25,2.32.57,4.71.94,1.51.38,2.76.69,3.77.94,7.41-8.54,14.26-17.91,20.54-28.08,5.15-8.42,8.73-16.02,10.74-22.81,17.46,10.18,26.2,16.65,26.2,19.41,0,3.02-2.89,4.52-8.67,4.52-1.51,0-3.39-.12-5.65-.38-11.94,11.19-23.87,20.8-35.81,28.84Zm-108-195.64c-.13-.25-.19-.57-.19-.94,0-1.38.75-2.07,2.26-2.07.25,0,.5.06.75.19,12.94,4.02,22.68,9.55,29.21,16.59,5.02,5.28,7.54,10.74,7.54,16.4,0,10.3-4.02,15.46-12.06,15.46-4.52,0-7.35-3.2-8.48-9.61-3.27-13.32-9.61-25.32-19.04-36Zm15.08,150.59c-.38-.38-.57-.75-.57-1.13,0-1.13.75-1.7,2.26-1.7h.57c11.81,2.64,20.98,6.91,27.52,12.82,5.53,4.78,8.29,9.93,8.29,15.46,0,3.65-1.07,6.76-3.2,9.33-2.14,2.58-4.71,3.86-7.73,3.86-4.27,0-7.23-3.02-8.86-9.05-3.39-10.68-9.49-20.54-18.28-29.59Zm40.15-52.96h58.43c-4.15-7.41-9.55-19.1-16.21-35.06h-23.94c-4.65,11.31-10.74,22.99-18.28,35.06Z"/>
  <path class="cls-1" d="m582.05,876.62c.25-.75.75-1.13,1.51-1.13,2.13,0,3.2.82,3.2,2.45v.57c-13.95,53.28-27.33,99.33-40.15,138.15-2.77,9.05-4.15,16.65-4.15,22.81,0,6.79,1.7,15.39,5.09,25.82,3.27,12.94,4.9,21.99,4.9,27.14,0,15.71-6.16,23.56-18.47,23.56-9.05,0-13.57-6.85-13.57-20.54,0-1.26.19-3.71.57-7.35.38-4.52.57-7.22.57-8.1,1.13-10.8,1.7-19.91,1.7-27.33,0-9.8-2.33-16.71-6.97-20.73-4.4-3.89-12.69-7.41-24.88-10.55-1.01-.12-1.51-.94-1.51-2.45,0-2.26.69-3.27,2.07-3.02,8.17,1.13,14.76,1.7,19.79,1.7,4.27,0,7.54-.69,9.8-2.07,2.89-1.88,5.65-5.47,8.29-10.74,15.46-31.91,32.86-74.64,52.21-128.16Zm-90.85.38c-.63-.38-.94-.88-.94-1.51,0-2.01.94-2.89,2.83-2.64,17.46,2.64,31.66,8.1,42.6,16.4,9.3,6.91,13.95,14.26,13.95,22.05,0,4.9-1.45,8.8-4.33,11.69-2.39,2.51-5.22,3.77-8.48,3.77-5.15,0-9.24-3.96-12.25-11.87-6.66-15.2-17.78-27.83-33.36-37.88Zm27.89-91.03c-.63-.38-.94-.94-.94-1.7,0-2.13.94-3.02,2.83-2.64,18.59,3.14,33.36,8.86,44.29,17.15,9.42,7.16,14.14,15.08,14.14,23.75,0,4.78-1.51,8.61-4.52,11.5-2.39,2.39-5.15,3.58-8.29,3.58-4.4,0-8.55-3.96-12.44-11.87-7.92-16.71-19.6-29.97-35.06-39.77Zm102.72,267.45c-2.01,7.42-3.71,13.32-5.09,17.72-1.13,4.9-5.21,7.35-12.25,7.35-7.67,0-11.5-1.7-11.5-5.09,0-1.76.38-3.77,1.13-6.03,9.3-29.15,17.72-62.51,25.26-100.08h-11.5c-7.16,0-14.77.75-22.81,2.26l-3.77-14.14c10.8,1.51,19.79,2.26,26.95,2.26h12.82c1.38-7.04,3.02-16.46,4.9-28.27,4.27-23.37,6.97-45.74,8.1-67.1,6.28,2.89,14.39,7.79,24.31,14.7h120.81c7.66-8.29,12.31-12.44,13.95-12.44,2.01,0,6.91,3.33,14.7,9.99,4.4,4.4,6.6,7.54,6.6,9.42,0,2.51-3.65,5.84-10.93,9.99-1.38,22.12-2.89,43.35-4.52,63.71h11.87c8.92-11.81,14.39-17.72,16.4-17.72,1.25,0,7.29,4.65,18.09,13.95,4.65,3.9,6.97,7.1,6.97,9.61s-1.7,3.77-5.09,3.77h-49c-2.01,26.26-5.15,51.77-9.42,76.52h13.19c9.55-11.81,15.08-17.72,16.59-17.72,1.88,0,8.23,4.65,19.04,13.95,4.9,4.02,7.35,7.35,7.35,9.99,0,2.26-1.7,3.39-5.09,3.39h-52.96c-4.9,26.01-10.68,43.92-17.34,53.72-6.91,9.8-16.71,14.7-29.4,14.7-2.39,0-3.9-.38-4.52-1.13-.63-.63-1.13-2.07-1.51-4.33-.63-4.52-3.71-8.36-9.24-11.5-5.15-3.02-14.07-6.35-26.76-9.99-.88-.38-1.32-1.2-1.32-2.45,0-2.01.69-2.89,2.07-2.64,20.23,2.89,34.93,4.33,44.1,4.33,8.42,0,15.33-13.19,20.73-39.58l.38-1.13h-142.3Zm30.34-228.43h140.98c10.8-12.94,17.15-19.41,19.04-19.41,1.63,0,8.86,5.15,21.67,15.46,5.4,4.52,8.1,7.92,8.1,10.18s-1.76,3.39-5.28,3.39h-189.42c-15.33,27.02-33.24,49.63-53.72,67.85-.38.25-.75.38-1.13.38-2.26,0-3.39-1.13-3.39-3.39,0-.25.06-.57.19-.94,17.59-23.24,32.92-52.71,45.99-88.4,5.15-14.32,8.67-27.26,10.55-38.83,15.58,5.15,25.38,8.73,29.4,10.74,3.39,1.76,5.09,3.58,5.09,5.47,0,3.77-4.71,6.28-14.14,7.54-4.4,11.06-9.05,21.05-13.95,29.97Zm-27.71,218.82h57.86c4.52-22.62,8.92-48.12,13.19-76.52h-53.72c-4.65,25.89-10.43,51.39-17.34,76.52Zm81.04-157.19h-51.27c-2.89,24.25-6.41,47.94-10.55,71.06h53.34c3.02-20.36,5.84-44.04,8.48-71.06Zm60.31,157.19c2.51-14.45,4.15-25.26,4.9-32.42,1.25-9.8,2.95-24.5,5.09-44.1h-58.24c-3.52,25.51-7.79,51.02-12.82,76.52h61.07Zm10.74-86.13c1.51-20.36,3.02-44.04,4.52-71.06h-53.9c-2.52,24.63-5.21,48.31-8.1,71.06h57.49Z"/>
  <path class="cls-1" d="m693.25,1298.09c6.66-12.69,13.13-27.2,19.41-43.54,4.27-11.18,7.22-21.99,8.86-32.42,24.38,7.29,36.56,12.94,36.56,16.96,0,3.39-5.28,5.84-15.83,7.35-12.69,19.6-25.26,36.82-37.7,51.64h85.57c11.81-13.69,18.78-20.54,20.92-20.54s9.49,5.15,22.05,15.46c5.9,4.78,8.86,8.36,8.86,10.74,0,2.64-1.82,3.96-5.47,3.96h-304.96c-8.55,0-18.47.75-29.78,2.26l-3.77-14.51c12.56,1.76,23.75,2.64,33.55,2.64h161.71Zm-41.65-92.17v-22.05c0-9.42-.63-18.85-1.88-28.27,17.84,2.14,29.28,4.08,34.3,5.84,3.64,1.26,5.47,3.08,5.47,5.47,0,3.27-4.52,6.72-13.57,10.37v28.65h97.63c10.43-12.69,16.71-19.04,18.85-19.04,2.38,0,9.36,4.9,20.92,14.7,5.65,4.78,8.48,8.29,8.48,10.55s-1.63,3.39-4.9,3.39h-264.81c-7.42,0-16.71.75-27.89,2.26l-3.77-14.51c9.92,1.76,20.48,2.64,31.66,2.64h99.52Zm95.75,279.13h-162.47v13.95c0,6.91-5.03,10.37-15.08,10.37-4.15,0-6.91-.63-8.29-1.88-1.38-1.26-2.07-3.58-2.07-6.97l1.88-88.02c0-34.3-.75-59.68-2.26-76.14,11.56,4.65,21.55,9.55,29.97,14.7h154.93c8.42-8.79,13.5-13.19,15.27-13.19,2.26,0,7.66,3.58,16.21,10.74,4.4,3.9,6.6,6.91,6.6,9.05,0,2.39-3.58,5.84-10.74,10.37v37.51l1.88,90.85c0,7.41-5.03,11.12-15.08,11.12-7.16,0-10.74-3.08-10.74-9.24v-13.19Zm-163.97-258.02c-.25-.25-.38-.57-.38-.94,0-1.63.88-2.45,2.64-2.45.38,0,.75.13,1.13.38,12.44,6.03,22.62,14.45,30.53,25.26,6.66,9.05,9.99,17.47,9.99,25.26,0,11.81-4.52,17.72-13.57,17.72-6.54,0-10.49-5.4-11.87-16.21-2.64-18.72-8.8-35.06-18.47-49Zm163.97,183.2v-49.57h-162.47v49.57h162.47Zm0,65.21v-55.6h-162.47v55.6h162.47Z"/>
  <path class="cls-1" d="m621.44,1648.01c-17.72,2.14-30.09,3.2-37.13,3.2-10.81,0-19.35-1.7-25.63-5.09-5.65-3.14-11-8.42-16.02-15.83-1.26-2.13-1.88-3.89-1.88-5.28,0-3.39,1.13-5.09,3.39-5.09,1.88,0,3.96,1.2,6.22,3.58,5.02,4.78,10.18,7.92,15.46,9.42,4.02,1.13,9.67,1.7,16.96,1.7,13.95,0,29.9-2.07,47.87-6.22,4.27-9.05,8.17-18.85,11.69-29.4,1.76-5.9,2.64-10.62,2.64-14.14,0-7.04-7.98-10.55-23.94-10.55-2.89,0-4.33-.63-4.33-1.88,0-2.01,1.44-3.96,4.33-5.84,3.77-2.26,8.48-3.39,14.14-3.39,6.53,0,14.2,2.07,22.99,6.22,11.31,5.28,16.96,11.06,16.96,17.34,0,3.77-1.57,6.6-4.71,8.48-3.9,2.51-7.23,6.6-9.99,12.25-1.51,2.89-4.46,8.42-8.86,16.59,13.82-4.27,25.63-9.11,35.43-14.51,8.29-4.65,14.89-6.97,19.79-6.97,3.89,0,7.1,1.07,9.61,3.2,2.01,1.88,3.02,4.02,3.02,6.41,0,3.02-1.01,5.34-3.02,6.97-1.63,1.51-4.71,3.14-9.24,4.9-22.12,8.67-44.29,15.52-66.53,20.54-15.2,26.64-27.89,47.25-38.07,61.82l.75.75c16.46-12.94,32.17-19.41,47.12-19.41,21.74,0,33.17,11.5,34.3,34.49.5,6.16.75,11.44.75,15.83,36.94-22.11,63.58-38.64,79.91-49.57,2.76-1.88,4.15-4.08,4.15-6.6,0-1.76-1.13-3.39-3.39-4.9-3.52-2.39-8.04-3.96-13.57-4.71-2.26-.38-3.39-1.13-3.39-2.26,0-1.88,1.76-3.45,5.28-4.71,2.89-1,6.28-1.51,10.18-1.51,8.92,0,18.41,3.08,28.46,9.24,10.55,6.54,15.83,12.63,15.83,18.28,0,4.9-2.58,7.6-7.73,8.1-4.4.63-8.23,1.63-11.5,3.02-20.23,8.42-43.66,19.73-70.3,33.93-4.02,2.26-9.93,5.65-17.72,10.18-8.04,4.52-13.45,7.6-16.21,9.24l.38,55.6c0,9.8-3.52,14.7-10.55,14.7-3.02,0-5.59-1.07-7.73-3.2-2.01-2.01-3.02-4.4-3.02-7.16,0-4.27.19-11.69.57-22.24.38-10.68.63-19.41.75-26.2-17.47,9.8-29.91,18.16-37.32,25.07-10.93,10.43-16.4,21.36-16.4,32.79,0,19.1,14.89,28.65,44.67,28.65,21.61,0,41.09-1,58.43-3.02,6.79-.88,13.82-2.2,21.11-3.96,6.79-1.51,11.69-2.26,14.7-2.26,7.16,0,13.07,1.82,17.72,5.47,3.89,2.89,5.84,6.22,5.84,9.99,0,6.91-7.48,11.06-22.43,12.44-18.85,1.51-43.16,2.26-72.94,2.26-53.53,0-80.29-15.71-80.29-47.12,0-16.96,7.47-32.54,22.43-46.74,8.92-8.42,23.87-18.97,44.86-31.66v-16.21c.25-13.44-1.57-22.74-5.47-27.89-3.02-3.89-7.48-5.84-13.38-5.84-14.83,0-31.23,8.48-49.19,25.44-11.44,11.18-22.99,25.01-34.68,41.46-2.64,3.9-5.91,5.84-9.8,5.84-2.89,0-5.4-1.25-7.54-3.77-1.88-2.26-2.83-4.96-2.83-8.1,0-4.9,3.7-11.24,11.12-19.04,15.08-15.46,28.08-31.03,39.01-46.74,8.79-12.44,18.09-27.89,27.89-46.37Z"/>
  <path class="cls-1" d="m72.19,127.03c-.75,45.23-4.78,83.12-12.06,113.65-9.17,38.58-27.71,73.19-55.6,103.85-.38.25-.82.38-1.32.38-2.14,0-3.2-.94-3.2-2.83,0-.25.06-.5.19-.75,19.47-30.91,32.54-65.59,39.2-104.04,5.65-33.93,8.48-79.16,8.48-135.7,0-23.24-.75-40.77-2.26-52.58,10.55,4.27,20.98,9.3,31.29,15.08h211.47c7.92-8.54,12.75-12.82,14.51-12.82,1.63,0,6.91,3.58,15.83,10.74,4.15,3.27,6.22,5.97,6.22,8.1,0,2.77-3.33,6.28-9.99,10.55v13.57l1.13,35.43c0,6.91-5.03,10.37-15.08,10.37-3.9,0-6.54-.63-7.92-1.88-1.13-1.13-1.7-3.2-1.7-6.22v-4.9H72.19ZM17.53,31.48l-3.77-13.76c10.55,1.26,21.11,1.88,31.66,1.88h254.25c11.56-13.07,18.41-19.6,20.54-19.6s9.55,5.03,22.24,15.08c6.41,5.03,9.61,8.61,9.61,10.74,0,2.26-1.88,3.39-5.65,3.39H45.42c-7.42,0-16.71.75-27.89,2.26Zm110.64,298.17v11.12c0,6.79-4.78,10.18-14.32,10.18-6.41,0-9.61-2.58-9.61-7.73,0-1.13.19-10.55.57-28.27.5-20.23.94-43.47,1.32-69.74l.38-37.13c-11.44,11.06-23.62,21.05-36.56,29.97-.25.13-.5.19-.75.19-2.14,0-3.2-1-3.2-3.02,0-.38.19-.75.57-1.13,22.49-22.11,40.21-45.86,53.15-71.24,5.65-10.93,9.61-20.61,11.87-29.03,21.36,7.42,32.04,12.94,32.04,16.59,0,2.26-1.26,3.77-3.77,4.52-1.88.5-5.78.94-11.69,1.32-4.52,7.67-9.49,15.02-14.89,22.05h72.75c3.14-4.9,6.34-11.18,9.61-18.85,4.15-9.3,6.79-17.46,7.92-24.5,21.86,6.66,32.79,11.81,32.79,15.46s-5.4,5.97-16.21,6.6c-7.79,9.05-14.89,16.15-21.3,21.3h73.32c10.43-11.81,16.59-17.72,18.47-17.72,2.14,0,8.86,4.52,20.17,13.57,5.4,4.15,8.1,7.6,8.1,10.37,0,2.26-1.82,3.39-5.47,3.39h-106.11v36h55.6c9.17-10.3,14.82-15.46,16.96-15.46,1.76,0,7.92,4.15,18.47,12.44,5.15,4.15,7.73,7.23,7.73,9.24,0,2.26-1.63,3.39-4.9,3.39h-93.86v36.75h57.49c9.42-10.55,15.08-15.83,16.96-15.83s8.1,4.27,18.66,12.82c5.15,4.15,7.73,7.23,7.73,9.24,0,2.26-1.7,3.39-5.09,3.39h-95.75v40.15h69.17c10.43-11.81,16.71-17.72,18.85-17.72,1.88,0,8.73,4.65,20.54,13.95,5.91,4.65,8.86,7.85,8.86,9.61,0,2.51-1.7,3.77-5.09,3.77h-211.47Zm163.22-212.22v-43.73H72.56v43.73h218.82Zm-163.22,106.49h76.71v-36h-76.71v36Zm0,9.61v36.75h76.71v-36.75h-76.71Zm0,46.37v40.15h76.71v-40.15h-76.71Z"/>
  <path class="cls-1" d="m146.26,575.35c34.93-20.61,65.52-30.91,91.79-30.91,20.36,0,37.25,5.47,50.7,16.4,12.82,10.55,19.22,24,19.22,40.33,0,18.97-7.54,33.86-22.62,44.67-12.19,8.67-26.76,13-43.73,13-25.26,0-47.81-9.67-67.66-29.03-1.26-1.25-1.88-3.08-1.88-5.47,0-2.01,1.13-3.02,3.39-3.02,1.25,0,2.83.75,4.71,2.26,15.08,12.19,33.23,18.28,54.47,18.28,14.57,0,26.76-4.71,36.56-14.14,8.79-8.67,13.19-19.29,13.19-31.85s-5.91-22.36-17.72-30.16c-9.55-6.15-20.11-9.24-31.66-9.24-13.19,0-28.21,3.9-45.05,11.69-11.43,5.28-25.89,13.45-43.35,24.5,0,6.41.25,14.39.75,23.94.63,12.44,1,20.23,1.13,23.37l.75,15.27c0,8.8-1.26,16.27-3.77,22.43-2.89,8.29-6.79,12.44-11.69,12.44-4.15,0-7.35-2.32-9.61-6.97-2.64-5.53-6.66-10.68-12.06-15.46-8.17-7.16-19.98-15.89-35.43-26.2-5.65,5.03-9.11,8.1-10.37,9.24-4.15,4.15-8.67,6.22-13.57,6.22-5.53,0-11.31-4.02-17.34-12.06-4.65-6.28-6.97-11.56-6.97-15.83,0-7.92,1.7-11.87,5.09-11.87,1.25,0,2.76,1.7,4.52,5.09,3.27,6.16,7.04,9.24,11.31,9.24,3.39,0,6.72-1,9.99-3.02,12.19-7.16,25.63-15.46,40.33-24.88,16.96-10.68,27.08-17.02,30.34-19.04v-81.8c-20.23,4.15-34.05,6.22-41.46,6.22-15.08,0-26.76-6.72-35.06-20.17-3.39-5.4-5.09-9.36-5.09-11.87,0-2.89,1.32-4.33,3.96-4.33,1.25,0,2.64,1.01,4.15,3.02,4.77,6.16,9.36,10.3,13.76,12.44,4.02,1.88,9.11,2.83,15.27,2.83,11.31,0,26.39-2.2,45.23-6.6.5-16.46.75-29.09.75-37.88,0-11.18-.88-17.97-2.64-20.36-3.65-5.02-9.61-8.04-17.91-9.05-2.52-.25-3.77-1.38-3.77-3.39,0-2.39,1.76-4.46,5.28-6.22,2.89-1.51,6.03-2.26,9.42-2.26,5.9,0,13.69,2.33,23.37,6.97,10.05,4.52,15.08,9.68,15.08,15.46,0,3.27-1.26,6.22-3.77,8.86-3.77,3.27-5.97,9.42-6.6,18.47-.88,7.54-1.51,15.64-1.88,24.31,13.07-4.02,22.93-8.67,29.59-13.95,3.02-2.39,7.1-4.71,12.25-6.97,5.15-2.26,9.42-3.39,12.82-3.39,9.05,0,13.57,3.46,13.57,10.37,0,4.78-3.08,8.55-9.24,11.31-16.71,7.42-36.88,14.89-60.5,22.43-.25,10.3-.38,22.99-.38,38.07v38.26Zm-16.96,27.52c-4.9,3.39-19.98,14.2-45.23,32.42,9.42,6.03,20.23,11.69,32.42,16.96,4.15,1.76,7.41,2.64,9.8,2.64,2.01,0,3.02-2.95,3.02-8.86v-43.16Zm153.99-131.93c15.46,0,30.47,5.4,45.05,16.21,12.94,9.55,19.41,19.73,19.41,30.53,0,6.66-3.08,9.99-9.24,9.99-1.26,0-3.83-.82-7.73-2.45-3.02-1.25-5.97-1.88-8.86-1.88-.5,0-3.46.75-8.86,2.26-2.89.88-8.86,3.33-17.91,7.35-1.01.5-2.64.75-4.9.75-2.64,0-3.96-1.13-3.96-3.39,0-2.39,1-4.08,3.02-5.09,11.69-7.04,19.6-12.25,23.75-15.64,1.76-1.88,2.64-3.45,2.64-4.71,0-.88-.63-2.26-1.88-4.15-8.8-11.06-20.8-16.59-36-16.59-8.67,0-16.15,1.26-22.43,3.77-4.9,2.01-7.73,3.02-8.48,3.02-2.01,0-3.02-1.13-3.02-3.39,0-2.39,2.45-4.96,7.35-7.73,10.43-5.9,21.11-8.86,32.04-8.86Z"/>
  <path class="cls-1" d="m239.93,940.71c0-17.59-3.27-31.66-9.8-42.22-7.04-11.43-17.28-17.15-30.72-17.15-14.32,0-31.41,8.1-51.27,24.31-1.26,1.01-3.02,2.51-5.28,4.52-4.65,4.02-7.67,6.85-9.05,8.48-4.27,5.4-8.92,8.1-13.95,8.1-4.65,0-9.24-2.7-13.76-8.1-8.29-9.55-12.44-19.1-12.44-28.65,0-3.77.82-6.85,2.45-9.24,1.38-2.01,2.89-3.02,4.52-3.02s2.64,1.38,3.02,4.15c1.13,4.52,2.89,8.42,5.28,11.69,2.01,3.02,4.02,4.52,6.03,4.52,5.28,0,11.69-2.07,19.22-6.22,17.72-9.55,30.72-15.83,39.01-18.85,9.42-3.27,18.78-4.9,28.08-4.9,21.74,0,38.26,8.92,49.57,26.76,8.67,13.45,13,29.47,13,48.06,0,37.19-12.32,69.49-36.94,96.88-19.98,22.37-46.11,39.14-78.41,50.32-3.9,1.25-6.6,1.88-8.1,1.88-3.39,0-5.09-1.32-5.09-3.96s2.32-4.9,6.97-7.16c31.41-15.2,55.6-35.12,72.56-59.75,16.71-24,25.07-50.82,25.07-80.48Zm-60.5-132.69c-22.24-6.16-37.32-16.46-45.23-30.91-.75-1.51-1.13-2.83-1.13-3.96,0-2.26,1-3.39,3.02-3.39,1.38,0,2.95.63,4.71,1.88,13.69,12.94,31.22,19.41,52.58,19.41,14.07,0,25,1.51,32.79,4.52,5.65,2.26,8.48,6.03,8.48,11.31,0,6.91-4.15,10.37-12.44,10.37h-7.92c-12.32,0-22.37,1.45-30.16,4.33-10.55,3.9-22.68,9.49-36.38,16.77-1.26.63-2.45.94-3.58.94-3.27,0-4.9-1.32-4.9-3.96,0-1.51,1.13-3.08,3.39-4.71,11.05-6.53,23.31-14.07,36.75-22.62Z"/>
  <path class="cls-1" d="m305.9,1104.03c14.7,0,27.01,5.47,36.94,16.4,8.54,9.55,12.82,20.67,12.82,33.36,0,14.7-5.47,27.08-16.4,37.13-9.55,8.67-20.67,13-33.36,13-14.7,0-27.08-5.53-37.13-16.59-8.67-9.67-13-20.86-13-33.55,0-14.7,5.53-27.01,16.59-36.94,9.67-8.54,20.86-12.82,33.55-12.82Zm0,13.19c-10.93,0-20.04,4.02-27.33,12.06-6.41,7.04-9.61,15.21-9.61,24.5,0,10.93,4.08,20.04,12.25,27.33,7.04,6.41,15.27,9.61,24.69,9.61,10.8,0,19.85-4.08,27.14-12.25,6.28-7.04,9.42-15.27,9.42-24.69,0-10.68-4.02-19.73-12.06-27.14-7.04-6.28-15.21-9.42-24.5-9.42Z"/>
</svg>